# xmcd
#
# Track frame offsets:
#	150
#	12903
#	29477
#	45449
#	56258
#	70214
#	83621
#	97863
#	114051
#	129243
#	143444
#	157491
#	170355
#	186626
#	199382
#	215765
#	230324
#	247692
#	262578
#	284342
#	299000
#	314127
#
# Disc length: 4456
#
# Revision: 2
# Processed by: cddbd v1.5.1PL0 Copyright (c) Steve Scherf et al.
# Submitted via: audiograbber 1.82.02
# Normalized: r1:DSETVAR1
#
DISCID=36116616
DTITLE=Various Artist - Country Music Made in Switzerland
DYEAR=1900
DGENRE=Country
TTITLE0=John Brack - Cruisin' Down The Highway Feelin'
TTITLE1=Krüger Brothers - Don' Think Twice
TTITLE2=Clover Leaf - Burn A Rider
TTITLE3=The Bluegrass Blossoms - I Wonder Where You Are Tonight
TTITLE4=Jeff Turner - Little Alibis
TTITLE5=Jeniffer Weatherly - In The Name Of Love
TTITLE6=Willie Nininger - Here Comes Love
TTITLE7=Rodeo Ranchers - Just Let Her Go
TTITLE8=Straight Ahead - Don't Be Sad
TTITLE9=Doris Ackermann - Parties On Monday
TTITLE10=Paul Mac Bonvin - La porte est toujours ouverte
TTITLE11=The Country Pickers - East To West
TTITLE12=Nashville Rebels - Honky Tonker
TTITLE13=Little Vernus - I Feel Lucky
TTITLE14=Polo Hofer - Wie cha e arme Maa so Zyte dürestah?
TTITLE15=Suzanne Klee - Rose Of My Heart
TTITLE16=Funny Hill - Red Lips Blue Eyes
TTITLE17=The Southcoasters - The Rose Of The San Joaquin
TTITLE18=Hank Shizzoe - Joe Went To The Water
TTITLE19=Angy Burri - Bad Case Of Lovin' You
TTITLE20=Tony Lewis - You Are The Dream
TTITLE21=Amber - Empty Inside
EXTD=
EXTT0=
EXTT1=
EXTT2=
EXTT3=
EXTT4=
EXTT5=
EXTT6=
EXTT7=
EXTT8=
EXTT9=
EXTT10=
EXTT11=
EXTT12=
EXTT13=
EXTT14=
EXTT15=
EXTT16=
EXTT17=
EXTT18=
EXTT19=
EXTT20=
EXTT21=
PLAYORDER=
